<svg xmlns="http://www.w3.org/2000/svg" width="95.179" height="99.841"><g data-paper-data="{&quot;isPaintingLayer&quot;:true}" fill="none" fill-rule="evenodd" stroke-width="none" stroke-linecap="none" stroke-linejoin="none" stroke-miterlimit="10" font-family="none" font-weight="none" font-size="none" text-anchor="none" style="mix-blend-mode:normal"><path d="M32.379 70.6c.8.4 2.5 1.3.1 4.7-2.4 3.4-9.3 4.1-10.1 4.1-3.1.1-6.9.1-11.1-1.3-12.2-4-12.3-17.1-8.4-19.2 3.8-2.1 5.5 6 11 10.9 2.4 2.2 5.3 3 7.7 3.5 3.4.6 9.9-3.2 10.8-2.7z" fill="#ffab19" stroke="#001026" stroke-width="1.2" stroke-linecap="round" stroke-linejoin="round"/><path d="M7.579 62.5c1.6 2.7 4.7 6.5 4.7 6.5s-3.7-.9-5.8.8c-1.7 1.3-1.3 3.5-1.1 4.2-1.3-1.3-2.9-3.1-3.9-6.6-1-3.5 0-7.7 2-8.3 2-.4 2.5 1.1 4.1 3.4z" fill="#fff"/><path d="M37.379 81c-1.8 1.2-8 5.6-15.9 8.1l-.4.1c-.4.1-.6.6-.4 1 1.7 2.4 4.8 7.2-.7 8.9-5.3 1.7-15.2-12.4-11-16.1 1.9-1.4 3.6-.7 4.5-.3.5.2 1 .2 1.5.1 1.2-.4 3.4-1.2 5.1-2.1 4.3-2.2 5.3-3.1 7.3-4.6 2-1.5 6.6-5.2 10.3-2 3.2 2.7 1.4 5.7-.3 6.9zM53.279 60.2c.5.4 6.6 7.6 8.6 5.8 2.4-2.1 5.7-6.2 9.3-2.9 3.6 3.3-3.2 8.9-6.1 10.4-6.9 3.1-12.5-2.8-13.7-4.4-1.2-1.6-3.3-4.3-3.3-6.9.1-2.8 3.5-3.5 5.2-2z" fill="#ffab19" stroke="#001026" stroke-width="1.2" stroke-linecap="round" stroke-linejoin="round"/><path d="M53.379 83.5c2.1 1.9 6.7 5.8 6.7 5.8s14.3-2.5 14.3 4.7c0 4.3-7.2 5.3-16.9 4.4-.6-.1-1.2-.3-1.7-.7-2.2-1.9-8.5-7.5-12.5-11.4-5.9-5.8-10.8-9.6-10.8-9.6-8.5-8.3-1.6-11.8 1.1-16.6 2.5-4.1 3.6-3.3 9.6-2.1 3.4.5 5.4.8 7.6.7 3.3-.1 2.7 4.7 1.8 7.2 0 0-1.4 3.7-2.7 5.6-1.6 2.3-2.8 3.8-4 4.7z" fill="#ffab19" stroke="#001026" stroke-width="1.2" stroke-linecap="round" stroke-linejoin="round"/><path d="M44.979 76.1s-1.5-1.2-3.1-2.7c-2-1.8-4-3.3-2-6.4 1.8-2.4 3.5-5.6 8-2.7 4.3 2.7 2.4 5.2 2.4 5.2-2.2 4.5-5.3 6.6-5.3 6.6z" fill="#fff"/><path d="M29.879 67.9c2.2 2.8 5.6 6.3 1.3 9.2-5.9 3.3-10.8-6.7-11.8-10.2-.9-3.1 1.7-5.1 3.9-6.8 4.3-3.1 7.9-5.9 11.9-4.4 5 1.8 1.4 5.8-1.1 7.6-1.5 1.1-3 2.3-4.1 3-.3.5-.4 1.1-.1 1.6z" fill="#ffab19" stroke="#001026" stroke-width="1.2" stroke-linecap="round" stroke-linejoin="round"/><path d="M61.379.5c.3-.2.8-.1.9.3l2.6 10.7s6.4 4.7 8.3 8c3.2 5.5 3.3 10 3.3 10s7.1 2.1 8.3 7.8c1.2 5.7-3.2 16.5-22 20.2-18.8 3.7-33.9-1.4-41-12.8-7.1-11.4 4.1-25 3.5-24.2l-2.1-17.9c-.1-.4.4-.7.8-.5l12.1 7.9s4.5-1.7 9.2-1.9c2.8-.2 5.2 0 7.5.4z" fill="#ffab19" stroke="#001026" stroke-width="1.2" stroke-linecap="butt" stroke-linejoin="miter"/><path d="M76.179 29.9s6.9 1.8 8.1 7.5c1.2 5.7-3.6 16-22.2 19.6-24.2 5-35.7-9.4-29-20 6.7-10.7 18.2-1.6 26.6-2.2 7.2-.5 8-6.8 16.5-4.9z" fill="#fff"/><path d="M44.679 40.6c0-.4.4-.7.8-.6 1.9.7 7.3 2.3 13.3 2.7 5.4.3 8.6 0 10.1-.3.5-.1.9.4.7.9-.9 2.7-4.7 10.2-15.2 9.6-9.1-1-10-7.4-9.7-12.3z" fill="#fff" stroke="#001026" stroke-width="1.2" stroke-linecap="round" stroke-linejoin="round"/><path d="M94.579 31c-4.7 3.8-11.9 3.9-11.9 3.9M93.279 42.2c-6.3.5-10.2-1.4-10.2-1.4" data-paper-data="{&quot;origPos&quot;:null}" stroke="#fff" stroke-width="1.2" stroke-linecap="round" stroke-linejoin="round"/><path d="M59.279 32.2c2.1 0 4.3.2 4.4.9.1 1.4-1.4 4.2-3 4.3-1.8.2-6-2.3-6-3.9-.1-1.2 2.6-1.3 4.6-1.3z" fill="#001026" stroke="#001026" stroke-width="1.2" stroke-linecap="round" stroke-linejoin="round"/><path d="M14.279 30.7s8.6 2.8 12.1 5.9M26.679 40.1c-4.3 1.7-11.7.6-11.7.6" data-paper-data="{&quot;origPos&quot;:null}" stroke="#fff" stroke-width="1.2" stroke-linecap="round" stroke-linejoin="round"/><g><path d="M71.079 20.5c2.9 4.5 3 9.6.2 11.4-2.8 1.8-7.4-.3-10.4-4.8-2.9-4.5-3-9.6-.2-11.4 2.8-1.9 7.5.3 10.4 4.8z" fill="#fff" stroke="#001026" stroke-width="1.2" stroke-linecap="round" stroke-linejoin="round"/><path d="M70.679 26.2c0 1.1-.8 2-1.8 2s-1.8-.9-1.8-2 .8-2 1.8-2 1.8.9 1.8 2" fill="#001026"/></g><g><path d="M46.279 23.3c3 4.4 2.8 9.8.1 11.7-3.3 1.9-7.7.5-10.7-3.9-3.1-4.4-3.3-10.1-.2-12.3 3.1-2.3 7.8.1 10.8 4.5z" fill="#fff" stroke="#001026" stroke-width="1.2" stroke-linecap="round" stroke-linejoin="round"/><path d="M45.679 29.1c0 1.1-.8 2-1.8 2s-1.8-.9-1.8-2 .8-2 1.8-2c1 .1 1.8.9 1.8 2" fill="#001026"/></g></g></svg>